<svg xmlns="http://www.w3.org/2000/svg" version="1.1" xmlns:xlink="http://www.w3.org/1999/xlink" xmlns:svgjs="http://svgjs.dev/svgjs" width="1000" height="623" viewBox="0 0 1000 623"><g transform="matrix(1,0,0,1,-0.6060606060606233,0.2522267206477409)"><svg viewBox="0 0 396 247" data-background-color="#528265" preserveAspectRatio="xMidYMid meet" height="623" width="1000" xmlns="http://www.w3.org/2000/svg" xmlns:xlink="http://www.w3.org/1999/xlink"><g id="tight-bounds" transform="matrix(1,0,0,1,0.2400000000000091,-0.09999999999999432)"><svg viewBox="0 0 395.52 247.2" height="247.2" width="395.52"><g><svg></svg></g><g><svg viewBox="0 0 395.52 247.2" height="247.2" width="395.52"><g transform="matrix(1,0,0,1,101.9742734042553,47.215199999999996)"><svg viewBox="0 0 191.57145319148938 152.7696" height="152.7696" width="191.57145319148938"><g><svg viewBox="0 0 191.57145319148938 152.7696" height="152.7696" width="191.57145319148938"><g><svg viewBox="0 0 191.57145319148938 152.7696" height="152.7696" width="191.57145319148938"><g><svg viewBox="0 0 191.57145319148938 152.7696" height="152.7696" width="191.57145319148938"><g id="textblocktransform"><svg viewBox="0 0 191.57145319148938 152.7696" height="152.7696" width="191.57145319148938" id="textblock"><g><svg viewBox="0 0 191.57145319148938 152.7696" height="152.7696" width="191.57145319148938"><g transform="matrix(1,0,0,1,0,0)"><svg width="191.57145319148938" viewBox="1.149999976158142 -37 47.14999771118164 37.599998474121094" height="152.7696" data-palette-color="#ffffff"><path d="M5.35-34.9L21.3-34.9 21.3-9Q21.3-4.45 18.68-1.93 16.05 0.6 11.2 0.6L11.2 0.6Q6.6 0.6 4.23-1.78 1.85-4.15 1.15-8.45L1.15-8.45 6.8-9.65Q7.2-7.1 8.2-5.95 9.2-4.8 11.15-4.8L11.15-4.8Q13-4.8 14.03-5.9 15.05-7 15.05-9.55L15.05-9.55 15.05-29.75 5.35-29.75 5.35-34.9ZM28 0L28-37 34.05-37 34.05-21.75 34.75-21.75Q36.3-26.7 41-26.7L41-26.7Q44.5-26.7 46.4-24.33 48.3-21.95 48.3-17.55L48.3-17.55 48.3 0 42.25 0 42.25-16.5Q42.25-21.6 38.45-21.6L38.45-21.6Q36.6-21.6 35.32-20.53 34.05-19.45 34.05-17.5L34.05-17.5 34.05 0 28 0Z" opacity="1" transform="matrix(1,0,0,1,0,0)" fill="#ffffff" class="wordmark-text-0" data-fill-palette-color="primary" id="text-0"></path></svg></g></svg></g></svg></g></svg></g></svg></g></svg></g></svg></g><path d="M111.244 41.215L111.244 0 358.444 0 358.444 247.2 111.244 247.2 111.244 205.985 125.021 205.985 125.021 233.423 344.667 233.423 344.667 13.777 125.021 13.777 125.021 41.215Z" fill="#ffffff" stroke="transparent" data-fill-palette-color="primary"></path></svg></g><defs></defs></svg><rect width="395.52" height="247.2" fill="none" stroke="none" visibility="hidden"></rect></g></svg></g></svg>